<svg width="19" height="18" viewBox="0 0 19 18" fill="none" xmlns="http://www.w3.org/2000/svg">
<path d="M7.25 0.749985V2.24998H11.75V0.749985H13.25V2.24998H16.25C16.6642 2.24998 17 2.58577 17 2.99998V15C17 15.4142 16.6642 15.75 16.25 15.75H2.75C2.33579 15.75 2 15.4142 2 15V2.99998C2 2.58577 2.33579 2.24998 2.75 2.24998H5.75V0.749985H7.25ZM15.5 8.24998H3.5V14.25H15.5V8.24998ZM5.75 3.74998H3.5V6.74998H15.5V3.74998H13.25V5.24998H11.75V3.74998H7.25V5.24998H5.75V3.74998Z" fill="url(#paint0_linear_42_3354)"/>
<defs>
<linearGradient id="paint0_linear_42_3354" x1="-2.2766" y1="-3.23938" x2="21.4043" y2="18.6862" gradientUnits="userSpaceOnUse">
<stop stop-color="#BA86F3"/>
<stop offset="1" stop-color="#8F6AF5"/>
</linearGradient>
</defs>
</svg>
