<svg width="33" height="33" viewBox="0 0 33 33" fill="none" xmlns="http://www.w3.org/2000/svg">
<path d="M17.9133 2.75098C19.4607 2.75353 20.2449 2.76173 20.9225 2.7819L21.1893 2.79062C21.4976 2.80158 21.8018 2.81533 22.1685 2.83251C23.6316 2.90012 24.6297 3.13158 25.5063 3.47189C26.4126 3.82137 27.178 4.29345 27.9422 5.05773C28.7054 5.822 29.1775 6.5897 29.5282 7.49376C29.8672 8.36918 30.0988 9.36836 30.1675 10.8316C30.1839 11.1982 30.1971 11.5024 30.208 11.8107L30.2166 12.0776C30.2367 12.7551 30.2459 13.5394 30.2488 15.0869L30.2499 16.1121C30.25 16.2373 30.25 16.3666 30.25 16.5L30.2499 16.8879L30.2491 17.9132C30.2465 19.4606 30.2384 20.2449 30.2181 20.9224L30.2093 21.1893C30.1985 21.4977 30.1847 21.8018 30.1675 22.1684C30.0999 23.6317 29.8672 24.6297 29.5282 25.5062C29.1786 26.4126 28.7054 27.1781 27.9422 27.9423C27.178 28.7054 26.4091 29.1775 25.5063 29.5281C24.6297 29.8673 23.6316 30.0987 22.1685 30.1675C21.8018 30.1838 21.4976 30.1972 21.1893 30.2079L20.9225 30.2166C20.2449 30.2368 19.4607 30.2458 17.9133 30.2489L16.8879 30.25C16.7627 30.25 16.6334 30.25 16.5 30.25H16.1122L15.0868 30.249C13.5394 30.2465 12.7551 30.2383 12.0776 30.2181L11.8107 30.2094C11.5024 30.1984 11.1982 30.1847 10.8316 30.1675C9.36834 30.1 8.37147 29.8673 7.49376 29.5281C6.58855 29.1787 5.82198 28.7054 5.05772 27.9423C4.29345 27.1781 3.82251 26.4092 3.47189 25.5062C3.13158 24.6297 2.90126 23.6317 2.83251 22.1684C2.81618 21.8018 2.80286 21.4977 2.79206 21.1893L2.78341 20.9224C2.7633 20.2449 2.75413 19.4606 2.75116 17.9132L2.75098 15.0869C2.75353 13.5394 2.76172 12.7551 2.78189 12.0776L2.79062 11.8107C2.80158 11.5024 2.81533 11.1982 2.83251 10.8316C2.90011 9.3672 3.13158 8.37033 3.47189 7.49376C3.82136 6.58856 4.29345 5.822 5.05772 5.05773C5.82198 4.29345 6.5897 3.82251 7.49376 3.47189C8.37033 3.13158 9.3672 2.90126 10.8316 2.83251C11.1982 2.81619 11.5024 2.80287 11.8107 2.79208L12.0776 2.78343C12.7551 2.7633 13.5394 2.75413 15.0868 2.75116L17.9133 2.75098ZM16.5 9.62501C12.701 9.62501 9.62501 12.7044 9.62501 16.5C9.62501 20.299 12.7044 23.375 16.5 23.375C20.299 23.375 23.375 20.2957 23.375 16.5C23.375 12.701 20.2956 9.62501 16.5 9.62501ZM16.5 12.375C18.7783 12.375 20.625 14.2212 20.625 16.5C20.625 18.7782 18.7788 20.625 16.5 20.625C14.2218 20.625 12.375 18.7789 12.375 16.5C12.375 14.2217 14.2211 12.375 16.5 12.375ZM23.7188 7.56251C22.771 7.56251 22 8.33239 22 9.2801C22 10.2278 22.7699 10.9989 23.7188 10.9989C24.6664 10.9989 25.4375 10.229 25.4375 9.2801C25.4375 8.33239 24.6652 7.56133 23.7188 7.56251Z" fill="url(#paint0_linear_42_2731)"/>
<defs>
<linearGradient id="paint0_linear_42_2731" x1="29.9996" y1="-8" x2="-7.00047" y2="34.4999" gradientUnits="userSpaceOnUse">
<stop stop-color="#5032D1"/>
<stop offset="0.54" stop-color="#E94675"/>
<stop offset="0.775" stop-color="#FD7D42"/>
<stop offset="1" stop-color="#FAE342"/>
</linearGradient>
</defs>
</svg>
