<svg width="14" height="12" viewBox="0 0 14 12" fill="none" xmlns="http://www.w3.org/2000/svg">
<path d="M0 0.75C0 0.335786 0.335786 0 0.75 0H13.25C13.6642 0 14 0.335786 14 0.75C14 1.16421 13.6642 1.5 13.25 1.5H0.75C0.335786 1.5 0 1.16421 0 0.75ZM0 6C0 5.58579 0.335786 5.25 0.75 5.25H13.25C13.6642 5.25 14 5.58579 14 6C14 6.41421 13.6642 6.75 13.25 6.75H0.75C0.335786 6.75 0 6.41421 0 6ZM0 11.25C0 10.8358 0.335786 10.5 0.75 10.5H13.25C13.6642 10.5 14 10.8358 14 11.25C14 11.6642 13.6642 12 13.25 12H0.75C0.335786 12 0 11.6642 0 11.25Z" fill="white"/>
</svg>
