<svg width="18" height="30" viewBox="0 0 18 30" fill="none" xmlns="http://www.w3.org/2000/svg">
<path d="M9 25.5C10.2426 25.5 11.25 26.5074 11.25 27.75C11.25 28.9926 10.2426 30 9 30C7.7574 30 6.75 28.9926 6.75 27.75C6.75 26.5074 7.7574 25.5 9 25.5ZM9 0C13.9705 0 18 4.02944 18 9C18 12.2469 16.8711 13.9361 13.9888 16.3847C11.0979 18.8406 10.5 19.9454 10.5 22.5H7.5C7.5 18.789 8.6805 16.9578 12.0465 14.0984C14.3218 12.1653 15 11.1506 15 9C15 5.68629 12.3137 3 9 3C5.68629 3 3 5.68629 3 9V10.5H0V9C0 4.02944 4.02944 0 9 0Z" fill="url(#paint0_linear_19_472)"/>
<defs>
<linearGradient id="paint0_linear_19_472" x1="-5.13191" y1="-7.97872" x2="35.199" y2="14.4261" gradientUnits="userSpaceOnUse">
<stop stop-color="#BA86F3"/>
<stop offset="1" stop-color="#8F6AF5"/>
</linearGradient>
</defs>
</svg>
