<svg width="33" height="33" viewBox="0 0 33 33" fill="none" xmlns="http://www.w3.org/2000/svg">
<path d="M2.95322 16.2386C10.1684 13.0951 14.9796 11.0227 17.3868 10.0215C24.2602 7.1626 25.6884 6.66599 26.6193 6.64959C26.824 6.64599 27.2819 6.69672 27.5783 6.93735C27.8287 7.14052 27.8976 7.41498 27.9306 7.60761C27.9636 7.80024 28.0046 8.23906 27.972 8.58193C27.5995 12.4955 25.9879 21.9927 25.168 26.3759C24.821 28.2307 24.1379 28.8525 23.4766 28.9134C22.0393 29.0456 20.9478 27.9635 19.5558 27.0511C17.3775 25.6231 16.1469 24.7342 14.0324 23.3408C11.5888 21.7305 13.1729 20.8454 14.5655 19.3991C14.93 19.0205 21.2627 13.2605 21.3852 12.7379C21.4005 12.6726 21.4148 12.429 21.27 12.3004C21.1253 12.1717 20.9118 12.2157 20.7576 12.2507C20.5392 12.3003 17.0592 14.6003 10.3179 19.151C9.33013 19.8292 8.43545 20.1597 7.63386 20.1424C6.75014 20.1233 5.05026 19.6427 3.78657 19.232C2.2366 18.7281 1.00471 18.4617 1.11198 17.6061C1.16785 17.1604 1.7816 16.7046 2.95322 16.2386Z" fill="#1EB2F1"/>
</svg>
