<svg width="33" height="33" viewBox="0 0 33 33" fill="none" xmlns="http://www.w3.org/2000/svg">
<g clip-path="url(#clip0_42_2735)">
<path d="M25.0943 7.68314C24.5227 7.15574 22.2129 5.47899 17.068 5.45621C17.068 5.45621 11.0009 5.09034 8.04331 7.80325C6.39693 9.44998 5.81776 11.8595 5.75667 14.8468C5.69557 17.8341 5.61653 23.4325 11.013 24.9505H11.0182L11.0147 27.2668C11.0147 27.2668 10.9802 28.2046 11.5977 28.3958C12.3446 28.6278 12.783 27.915 13.496 27.1467C13.8875 26.7249 14.428 26.1054 14.8352 25.6318C18.526 25.9425 21.3645 25.2325 21.6869 25.1276C22.4321 24.8859 26.6488 24.3458 27.3346 18.7477C28.0426 12.9778 26.9923 9.32814 25.0943 7.68314ZM25.7197 18.3339C25.1408 23.008 21.7207 23.3017 21.0901 23.504C20.8219 23.5902 18.3289 24.2105 15.1939 24.0058C15.1939 24.0058 12.8579 26.824 12.1282 27.5567C12.0143 27.6713 11.8804 27.7176 11.791 27.6948C11.6654 27.6641 11.6308 27.5153 11.6322 27.2979C11.6343 26.9872 11.6522 23.4487 11.6522 23.4487C7.08723 22.1813 7.35335 17.4165 7.40512 14.9214C7.45689 12.4262 7.92561 10.3822 9.31796 9.00749C11.8196 6.74156 16.9731 7.08016 16.9731 7.08016C21.3252 7.09914 23.4106 8.40969 23.8942 8.84872C25.4998 10.2235 26.3178 13.5131 25.7197 18.3325V18.3339Z" fill="#772AD6"/>
<path d="M19.1862 14.7162C19.1295 13.5752 18.5499 12.9759 17.4473 12.9183" stroke="#772AD6" stroke-width="0.581929" stroke-linecap="round" stroke-linejoin="round"/>
<path d="M20.6787 15.2165C20.7018 14.1535 20.3869 13.2653 19.7341 12.552C19.0783 11.8361 18.1705 11.4419 17.0056 11.3567" stroke="#772AD6" stroke-width="0.581929" stroke-linecap="round" stroke-linejoin="round"/>
<path d="M22.2075 15.8146C22.1935 13.9698 21.6423 12.517 20.5539 11.456C19.4655 10.3949 18.1119 9.85881 16.4932 9.84753" stroke="#772AD6" stroke-width="0.581929" stroke-linecap="round" stroke-linejoin="round"/>
<path d="M17.5051 18.6133C17.5051 18.6133 17.9141 18.6478 18.1343 18.3765L18.5637 17.8364C18.7707 17.5685 19.2705 17.3977 19.76 17.6704C20.1267 17.8795 20.4828 18.1069 20.8268 18.3517C21.1516 18.5905 21.8167 19.1455 21.8188 19.1455C22.1356 19.413 22.2088 19.8058 21.9931 20.22C21.9931 20.2224 21.9914 20.2266 21.9914 20.2286C21.7538 20.6405 21.4521 21.0119 21.0978 21.329C21.0936 21.3311 21.0936 21.3331 21.0898 21.3352C20.782 21.5925 20.4795 21.7387 20.1824 21.7739C20.1387 21.7815 20.0942 21.7843 20.0499 21.7822C19.9189 21.7834 19.7886 21.7634 19.664 21.7228L19.6543 21.7087C19.1967 21.5796 18.4325 21.2565 17.1599 20.5545C16.4235 20.153 15.7224 19.6899 15.0641 19.17C14.7342 18.9097 14.4195 18.6305 14.1215 18.3341L14.0898 18.3023L14.058 18.2706L14.0263 18.2385C14.0156 18.2281 14.0052 18.2174 13.9945 18.2067C13.698 17.9088 13.4189 17.594 13.1585 17.2641C12.6388 16.6059 12.1757 15.9049 11.7741 15.1687C11.0721 13.8958 10.749 13.1323 10.6199 12.6739L10.6058 12.6642C10.5653 12.5397 10.5454 12.4093 10.5468 12.2784C10.5443 12.234 10.547 12.1896 10.5547 12.1458C10.5917 11.8494 10.7382 11.5469 10.9941 11.2381C10.9962 11.2343 10.9982 11.2343 11.0003 11.2301C11.3172 10.8758 11.6887 10.5742 12.1006 10.3369C12.1027 10.3369 12.1069 10.3348 12.1093 10.3348C12.5235 10.1191 12.9162 10.1923 13.1834 10.5074C13.1855 10.5094 13.7394 11.1746 13.9772 11.4993C14.222 11.8437 14.4494 12.2001 14.6586 12.5673C14.9313 13.0563 14.7604 13.5572 14.4926 13.7636L13.9524 14.1929C13.6797 14.4131 13.7156 14.8221 13.7156 14.8221C13.7156 14.8221 14.5157 17.8502 17.5051 18.6133Z" fill="#772AD6"/>
</g>
<defs>
<clipPath id="clip0_42_2735">
<rect width="21.8134" height="23.0021" fill="white" transform="translate(5.74316 5.43958)"/>
</clipPath>
</defs>
</svg>
