<svg width="33" height="33" viewBox="0 0 33 33" fill="none" xmlns="http://www.w3.org/2000/svg">
<path d="M16.501 2.75C24.0949 2.75 30.251 8.90608 30.251 16.5C30.251 24.0938 24.0949 30.25 16.501 30.25C13.9794 30.25 11.6163 29.5713 9.58456 28.3865L2.75672 30.25L4.61567 23.4183C3.43017 21.3862 2.75098 19.0224 2.75098 16.5C2.75098 8.90608 8.90706 2.75 16.501 2.75ZM11.5391 10.049C11.3612 10.0615 11.1867 10.1049 11.0279 10.1862C10.9088 10.2471 10.7982 10.3352 10.6244 10.4993C10.4603 10.6543 10.3652 10.7896 10.265 10.9201C9.75662 11.5819 9.4834 12.3943 9.48848 13.2288C9.49124 13.9034 9.66647 14.559 9.9432 15.1712C10.5044 16.4125 11.4298 17.7248 12.6523 18.9419C12.9459 19.2342 13.2336 19.5297 13.5438 19.8027C15.0611 21.1387 16.8692 22.102 18.8243 22.6163C18.8243 22.6163 19.5943 22.7345 19.6056 22.7352C19.8607 22.749 20.1153 22.7305 20.3707 22.7175C20.7712 22.6968 21.1623 22.5885 21.5162 22.4C21.7437 22.2788 21.8514 22.2186 22.0424 22.0982C22.0424 22.0982 22.101 22.0586 22.214 21.9744C22.3996 21.8361 22.5143 21.7387 22.6687 21.5784C22.7826 21.4602 22.8805 21.3205 22.9561 21.163C23.0636 20.9386 23.1718 20.5103 23.2149 20.1546C23.2477 19.8829 23.2378 19.7344 23.2342 19.6424C23.2283 19.4945 23.1061 19.3423 22.9722 19.2776L22.1726 18.9182C22.1726 18.9182 20.977 18.3979 20.2458 18.0643C20.1696 18.0295 20.0863 18.0135 20.0026 18.0084C19.8192 17.9971 19.6136 18.0449 19.4828 18.1827C19.476 18.18 19.3849 18.2586 18.3901 19.4638C18.3353 19.5294 18.2067 19.672 17.9844 19.6586C17.9508 19.6563 17.9174 19.6515 17.8848 19.643C17.7947 19.6192 17.707 19.5878 17.6212 19.5515C17.4511 19.4793 17.3915 19.452 17.2753 19.4019C16.4815 19.0552 15.753 18.5912 15.1091 18.0235C14.9364 17.8714 14.7758 17.7077 14.6102 17.5472C14.0325 16.9872 13.5595 16.3915 13.2076 15.804C13.1884 15.7719 13.1588 15.7256 13.1269 15.6738C13.0693 15.5801 13.0058 15.4687 12.9859 15.3923C12.9348 15.19 13.0704 15.0275 13.0704 15.0275C13.0704 15.0275 13.405 14.6616 13.5605 14.4627C13.7101 14.2711 13.8393 14.0838 13.9215 13.9503C14.0835 13.69 14.1348 13.4209 14.0497 13.2132C13.6639 12.2728 13.2659 11.3374 12.8557 10.4073C12.7747 10.2237 12.5339 10.0904 12.3149 10.0651C12.2408 10.0565 12.1667 10.0479 12.0922 10.043C11.9079 10.034 11.7232 10.036 11.5391 10.049Z" fill="#32E13D"/>
</svg>
